<svg width="26" height="26" viewBox="0 0 26 26" fill="none" xmlns="http://www.w3.org/2000/svg">
<g clip-path="url(#clip0_62_3783)">
<path d="M23.6386 17.1428L15.7641 4.08357C15.4457 3.58544 15.007 3.1755 14.4884 2.89154C13.9699 2.60758 13.3882 2.45874 12.797 2.45874C12.2058 2.45874 11.6241 2.60758 11.1056 2.89154C10.5871 3.1755 10.1484 3.58544 9.82994 4.08357L1.9554 17.1428C1.67723 17.6065 1.52604 18.1352 1.51703 18.6759C1.50802 19.2166 1.64151 19.7501 1.90407 20.2228C2.20763 20.7549 2.64703 21.1968 3.17734 21.5035C3.70766 21.8101 4.30989 21.9704 4.92247 21.9681H20.6715C21.2801 21.9746 21.8796 21.8205 22.4096 21.5212C22.9395 21.222 23.3812 20.7883 23.6899 20.2638C23.9602 19.7862 24.098 19.245 24.0889 18.6963C24.0799 18.1476 23.9244 17.6113 23.6386 17.1428V17.1428ZM21.8933 19.2474C21.7699 19.4595 21.5908 19.6338 21.3755 19.7515C21.1601 19.8691 20.9167 19.9256 20.6715 19.9148H4.92247C4.67733 19.9256 4.4339 19.8691 4.21855 19.7515C4.00319 19.6338 3.82413 19.4595 3.70074 19.2474C3.61063 19.0914 3.56319 18.9143 3.56319 18.7341C3.56319 18.5539 3.61063 18.3768 3.70074 18.2208L11.5855 5.1513C11.7272 4.96415 11.9103 4.81236 12.1205 4.70786C12.3307 4.60335 12.5623 4.54896 12.797 4.54896C13.0317 4.54896 13.2633 4.60335 13.4735 4.70786C13.6837 4.81236 13.8668 4.96415 14.0085 5.1513L21.883 18.2105C21.9766 18.3669 22.0269 18.5453 22.0287 18.7276C22.0305 18.9098 21.9838 19.0892 21.8933 19.2474V19.2474Z" fill="#751BB4"/>
<path d="M12.7962 17.8613C13.3632 17.8613 13.8229 17.4017 13.8229 16.8347C13.8229 16.2676 13.3632 15.808 12.7962 15.808C12.2292 15.808 11.7695 16.2676 11.7695 16.8347C11.7695 17.4017 12.2292 17.8613 12.7962 17.8613Z" fill="#751BB4"/>
<path d="M12.7962 8.62134C12.5239 8.62134 12.2628 8.7295 12.0702 8.92204C11.8777 9.11458 11.7695 9.37572 11.7695 9.648V13.7547C11.7695 14.027 11.8777 14.2881 12.0702 14.4806C12.2628 14.6732 12.5239 14.7813 12.7962 14.7813C13.0685 14.7813 13.3296 14.6732 13.5222 14.4806C13.7147 14.2881 13.8229 14.027 13.8229 13.7547V9.648C13.8229 9.37572 13.7147 9.11458 13.5222 8.92204C13.3296 8.7295 13.0685 8.62134 12.7962 8.62134Z" fill="#751BB4"/>
</g>
<defs>
<clipPath id="clip0_62_3783">
<rect width="24.64" height="24.64" fill="white" transform="translate(0.477539 0.408081)"/>
</clipPath>
</defs>
</svg>
