<?xml version="1.0" encoding="utf-8"?>
<!-- Generator: Adobe Illustrator 26.1.0, SVG Export Plug-In . SVG Version: 6.00 Build 0)  -->
<svg version="1.1" id="a" xmlns="http://www.w3.org/2000/svg" xmlns:xlink="http://www.w3.org/1999/xlink" x="0px" y="0px"
	 viewBox="0 0 96 51" style="enable-background:new 0 0 96 51;" xml:space="preserve">
<style type="text/css">
	.st0{fill:#821EC8;}
	.st1{fill:#94E52A;}
</style>
<g>
	<polygon class="st0" points="32.2,13 32.2,42.6 41.2,42.6 41.2,38.5 37.4,38.5 37.4,13 	"/>
	<rect x="44.5" y="22.3" class="st0" width="5" height="20.3"/>
	<circle class="st0" cx="47" cy="15.8" r="3.2"/>
	<g>
		<polygon class="st0" points="7.6,0 0,0 0,35.2 7.6,27.1 		"/>
		<polygon class="st0" points="20,13 7.6,27.1 20.5,42.6 30.1,42.6 16.2,27 29.5,13 		"/>
	</g>
	<circle class="st1" cx="3.8" cy="39.1" r="3.8"/>
	<path class="st0" d="M76.6,32.4c0,6.4-4.3,10.7-9.8,10.7c-3.1,0-5.3-1.2-6.8-3.3V51h-5.1V22.3h5l0.1,3.1c1.4-2.2,3.7-3.4,6.8-3.4
		C72.3,21.9,76.6,26.1,76.6,32.4L76.6,32.4L76.6,32.4z M71.2,32.4c0-3.7-2.3-6.1-5.6-6.1c-3.3,0-5.6,2.5-5.6,6.2s2.2,6.2,5.6,6.2
		C69,38.6,71.2,36.2,71.2,32.4L71.2,32.4z"/>
	<path class="st0" d="M79.8,40.6l1.9-3.1c1.9,1.1,3.9,1.5,5.9,1.5c1.9,0,3.2-0.8,3.2-2s-1.4-1.9-3.5-2.5l-1.7-0.5
		c-3.4-0.9-5.8-2.2-5.8-5.4c0-4,3.2-6.7,8-6.7c3.1,0,5.7,0.6,7.7,2l-2.2,3.4c-1.6-0.9-3.4-1.3-5.2-1.3S85,26.6,85,27.8
		s1.3,1.8,3.1,2.2l1.7,0.5c3.5,0.9,6.2,2.5,6.2,6.1c0,3.9-3.4,6.4-8.5,6.4C84.4,43,81.6,42.3,79.8,40.6L79.8,40.6L79.8,40.6z"/>
</g>
</svg>
