<svg width="24" height="24" viewBox="0 0 24 24" fill="none" xmlns="http://www.w3.org/2000/svg">
<path fill-rule="evenodd" clip-rule="evenodd" d="M5.33318 2.02237C7.30657 0.70379 9.62666 0 12 0C13.5759 0 15.1363 0.31039 16.5923 0.913448C18.0482 1.51651 19.371 2.40042 20.4853 3.51473C21.5996 4.62903 22.4836 5.95191 23.0866 7.40782C23.6897 8.86373 24.0001 10.4242 24.0001 12C24.0001 14.3734 23.2963 16.6935 21.9777 18.6669C20.6591 20.6403 18.785 22.1784 16.5923 23.0866C14.3995 23.9949 11.9867 24.2325 9.65895 23.7695C7.33117 23.3065 5.19297 22.1636 3.51473 20.4853C1.8365 18.8071 0.693607 16.6689 0.230583 14.3411C-0.232441 12.0133 0.00519941 9.60054 0.913453 7.40782C1.82171 5.2151 3.35978 3.34095 5.33318 2.02237ZM6.66655 19.9822C8.24526 21.037 10.1013 21.6001 12 21.6001C14.5461 21.6001 16.9879 20.5886 18.7883 18.7883C20.5886 16.9879 21.6001 14.5461 21.6001 12C21.6001 10.1013 21.037 8.24526 19.9822 6.66654C18.9273 5.08783 17.428 3.85737 15.6738 3.13076C13.9196 2.40416 11.9894 2.21405 10.1272 2.58447C8.26494 2.95489 6.55438 3.8692 5.21179 5.21179C3.86921 6.55438 2.95489 8.26494 2.58447 10.1272C2.21405 11.9894 2.40417 13.9196 3.13077 15.6738C3.85737 17.428 5.08783 18.9273 6.66655 19.9822ZM10.7039 13.668L15.2399 7.66794H15.2279C15.4221 7.41333 15.7094 7.24627 16.0267 7.20351C16.344 7.16076 16.6653 7.2458 16.92 7.43994C17.1746 7.63408 17.3416 7.92141 17.3844 8.23872C17.4271 8.55603 17.3421 8.87733 17.148 9.13194L11.6639 16.332C11.5521 16.4772 11.4086 16.5949 11.2443 16.676C11.0799 16.7571 10.8992 16.7995 10.7159 16.8C10.5337 16.8009 10.3536 16.7604 10.1893 16.6814C10.025 16.6024 9.88094 16.487 9.76793 16.344L6.85192 12.612C6.65619 12.3605 6.56836 12.0416 6.60774 11.7255C6.64712 11.4093 6.8105 11.1217 7.06193 10.9259C7.31335 10.7302 7.63223 10.6424 7.94842 10.6818C8.26461 10.7211 8.5522 10.8845 8.74793 11.1359L10.7039 13.668Z" fill="#0AA11D"/>
</svg>
